<svg width="140" height="16" viewBox="0 0 140 16" fill="none" xmlns="http://www.w3.org/2000/svg">
<path d="M0.931818 15V0.454545H5.62642C6.65862 0.454545 7.52036 0.641572 8.21165 1.01562C8.90767 1.38494 9.43087 1.89867 9.78125 2.55682C10.1364 3.21023 10.3139 3.9607 10.3139 4.80824C10.3139 5.65578 10.1364 6.40388 9.78125 7.05256C9.43087 7.70123 8.91004 8.20786 8.21875 8.57244C7.52746 8.93703 6.67045 9.11932 5.64773 9.11932H1.64915V7.90483H5.61222C6.36979 7.90483 6.99953 7.77936 7.50142 7.52841C8.00805 7.27746 8.38447 6.91998 8.63068 6.45597C8.88163 5.99195 9.0071 5.44271 9.0071 4.80824C9.0071 4.17377 8.88163 3.61979 8.63068 3.14631C8.37974 2.66809 8.00095 2.29877 7.49432 2.03835C6.99242 1.77793 6.35795 1.64773 5.59091 1.64773H2.25994V15H0.931818ZM7.34517 8.4375L10.9247 15H9.39062L5.84659 8.4375H7.34517ZM17.5795 15.2273C16.5616 15.2273 15.6809 14.9905 14.9375 14.517C14.1941 14.0388 13.6188 13.3783 13.2116 12.5355C12.8092 11.688 12.608 10.7126 12.608 9.60938C12.608 8.51089 12.8092 7.53551 13.2116 6.68324C13.6188 5.82623 14.1799 5.15625 14.8949 4.6733C15.6146 4.18561 16.4455 3.94176 17.3878 3.94176C17.9796 3.94176 18.5502 4.05066 19.0994 4.26847C19.6487 4.48153 20.1411 4.81061 20.5767 5.25568C21.017 5.69602 21.3651 6.25237 21.6207 6.92472C21.8764 7.59233 22.0043 8.38305 22.0043 9.29688V9.92188H13.4815V8.80682H20.7116C20.7116 8.10606 20.5696 7.47633 20.2855 6.91761C20.0062 6.35417 19.6155 5.90909 19.1136 5.58239C18.6165 5.25568 18.0412 5.09233 17.3878 5.09233C16.6965 5.09233 16.0881 5.27699 15.5625 5.64631C15.0369 6.01562 14.625 6.50331 14.3267 7.10938C14.0331 7.71544 13.884 8.37831 13.8793 9.09801V9.76562C13.8793 10.6321 14.0284 11.3897 14.3267 12.0384C14.6297 12.6823 15.0582 13.1818 15.6122 13.5369C16.1662 13.892 16.822 14.0696 17.5795 14.0696C18.0956 14.0696 18.5478 13.9891 18.9361 13.8281C19.3291 13.6671 19.6581 13.4517 19.9233 13.1818C20.1932 12.9072 20.3968 12.6065 20.5341 12.2798L21.7344 12.6705C21.5687 13.1297 21.2964 13.5535 20.9176 13.9418C20.5436 14.33 20.0748 14.6425 19.5114 14.8793C18.9527 15.1113 18.3087 15.2273 17.5795 15.2273ZM27.837 15.2486C27.1789 15.2486 26.5775 15.1207 26.033 14.8651C25.4885 14.6046 25.0553 14.2306 24.7333 13.7429C24.4113 13.2505 24.2504 12.6539 24.2504 11.9531C24.2504 11.4134 24.3522 10.9588 24.5558 10.5895C24.7594 10.2202 25.0482 9.91714 25.4222 9.6804C25.7963 9.44366 26.239 9.25663 26.7504 9.11932C27.2617 8.98201 27.8252 8.87547 28.4407 8.79972C29.0515 8.72396 29.5676 8.65767 29.989 8.60085C30.4151 8.54403 30.7395 8.45407 30.962 8.33097C31.1845 8.20786 31.2958 8.009 31.2958 7.73438V7.47869C31.2958 6.73532 31.0733 6.15057 30.6282 5.72443C30.1879 5.29356 29.5534 5.07812 28.7248 5.07812C27.9388 5.07812 27.2972 5.25095 26.8001 5.59659C26.3076 5.94223 25.962 6.34943 25.7631 6.81818L24.5629 6.38494C24.8091 5.78835 25.15 5.3125 25.5856 4.95739C26.0212 4.59754 26.5089 4.33949 27.0487 4.18324C27.5884 4.02225 28.1353 3.94176 28.6893 3.94176C29.1059 3.94176 29.5392 3.99621 29.989 4.10511C30.4435 4.21401 30.8649 4.40341 31.2532 4.6733C31.6415 4.93845 31.9563 5.31013 32.1978 5.78835C32.4393 6.26184 32.56 6.86316 32.56 7.59233V15H31.2958V13.2741H31.2177C31.0662 13.5961 30.8413 13.9086 30.543 14.2116C30.2447 14.5147 29.8706 14.7633 29.4208 14.9574C28.971 15.1515 28.4431 15.2486 27.837 15.2486ZM28.0075 14.0909C28.6798 14.0909 29.2622 13.9418 29.7546 13.6435C30.247 13.3452 30.6258 12.9498 30.891 12.4574C31.1609 11.9602 31.2958 11.4134 31.2958 10.8168V9.24006C31.2011 9.33002 31.0425 9.41051 30.82 9.48153C30.6022 9.55256 30.3488 9.61648 30.06 9.6733C29.7759 9.72538 29.4918 9.77036 29.2077 9.80824C28.9237 9.84612 28.668 9.87926 28.4407 9.90767C27.8252 9.98343 27.2996 10.1018 26.864 10.2628C26.4284 10.4238 26.0946 10.6463 25.8626 10.9304C25.6306 11.2098 25.5146 11.5696 25.5146 12.0099C25.5146 12.6728 25.7513 13.1866 26.2248 13.5511C26.6983 13.911 27.2925 14.0909 28.0075 14.0909ZM37.1871 0.454545V15H35.9229V0.454545H37.1871ZM46.4201 15V0.454545H54.8576V1.64773H47.7482V7.12358H54.4102V8.31676H47.7482V13.8068H54.9996V15H46.4201ZM65.3619 6.48438L64.2042 6.81108C64.0906 6.48437 63.9296 6.18845 63.7212 5.9233C63.5129 5.65814 63.2406 5.44744 62.9045 5.29119C62.573 5.13494 62.1611 5.05682 61.6687 5.05682C60.93 5.05682 60.324 5.23201 59.8505 5.58239C59.377 5.93277 59.1403 6.38494 59.1403 6.93892C59.1403 7.40767 59.3013 7.78883 59.6232 8.08239C59.9499 8.37121 60.4518 8.60085 61.1289 8.77131L62.7766 9.17614C63.6905 9.39867 64.3746 9.75142 64.8292 10.2344C65.2885 10.7173 65.5181 11.3234 65.5181 12.0526C65.5181 12.6681 65.3477 13.215 65.0067 13.6932C64.6658 14.1714 64.19 14.5478 63.5792 14.8224C62.9731 15.0923 62.27 15.2273 61.4698 15.2273C60.4045 15.2273 59.5262 14.9882 58.8349 14.5099C58.1436 14.027 57.7009 13.331 57.5067 12.4219L58.7212 12.1236C58.8775 12.7723 59.1829 13.2623 59.6374 13.5938C60.0967 13.9252 60.7004 14.0909 61.4485 14.0909C62.2866 14.0909 62.9566 13.9039 63.4585 13.5298C63.9603 13.151 64.2113 12.6776 64.2113 12.1094C64.2113 11.669 64.0645 11.2997 63.771 11.0014C63.4774 10.6984 63.0323 10.4759 62.4357 10.3338L60.6531 9.90767C59.7061 9.6804 59.0053 9.32055 58.5508 8.82812C58.0962 8.3357 57.869 7.7249 57.869 6.99574C57.869 6.39441 58.0323 5.86648 58.359 5.41193C58.6857 4.95265 59.1355 4.5928 59.7085 4.33239C60.2814 4.07197 60.9348 3.94176 61.6687 3.94176C62.6677 3.94176 63.4656 4.16903 64.0621 4.62358C64.6635 5.07339 65.0967 5.69366 65.3619 6.48438ZM72.5831 4.09091V5.19176H67.3771V4.09091H72.5831ZM69.0036 1.47727H70.2749V12.152C70.2749 12.6065 70.353 12.964 70.5092 13.2244C70.6655 13.4801 70.8691 13.6624 71.12 13.7713C71.371 13.8755 71.6385 13.9276 71.9226 13.9276C72.0883 13.9276 72.2304 13.9181 72.3487 13.8991C72.4671 13.8755 72.5713 13.8518 72.6612 13.8281L72.9311 14.9716C72.808 15.0189 72.6565 15.0616 72.4766 15.0994C72.2966 15.142 72.0741 15.1634 71.8089 15.1634C71.3449 15.1634 70.8975 15.0616 70.4666 14.858C70.0405 14.6544 69.6901 14.3513 69.4155 13.9489C69.1409 13.5464 69.0036 13.0469 69.0036 12.4503V1.47727ZM78.5011 15.2486C77.8429 15.2486 77.2416 15.1207 76.6971 14.8651C76.1526 14.6046 75.7193 14.2306 75.3974 13.7429C75.0754 13.2505 74.9144 12.6539 74.9144 11.9531C74.9144 11.4134 75.0162 10.9588 75.2198 10.5895C75.4234 10.2202 75.7122 9.91714 76.0863 9.6804C76.4603 9.44366 76.9031 9.25663 77.4144 9.11932C77.9258 8.98201 78.4892 8.87547 79.1048 8.79972C79.7156 8.72396 80.2317 8.65767 80.6531 8.60085C81.0792 8.54403 81.4035 8.45407 81.6261 8.33097C81.8486 8.20786 81.9599 8.009 81.9599 7.73438V7.47869C81.9599 6.73532 81.7373 6.15057 81.2923 5.72443C80.8519 5.29356 80.2174 5.07812 79.3888 5.07812C78.6029 5.07812 77.9613 5.25095 77.4641 5.59659C76.9717 5.94223 76.6261 6.34943 76.4272 6.81818L75.2269 6.38494C75.4731 5.78835 75.814 5.3125 76.2496 4.95739C76.6853 4.59754 77.1729 4.33949 77.7127 4.18324C78.2525 4.02225 78.7994 3.94176 79.3533 3.94176C79.77 3.94176 80.2032 3.99621 80.6531 4.10511C81.1076 4.21401 81.529 4.40341 81.9173 4.6733C82.3055 4.93845 82.6204 5.31013 82.8619 5.78835C83.1033 6.26184 83.2241 6.86316 83.2241 7.59233V15H81.9599V13.2741H81.8817C81.7302 13.5961 81.5053 13.9086 81.207 14.2116C80.9087 14.5147 80.5347 14.7633 80.0849 14.9574C79.6351 15.1515 79.1071 15.2486 78.5011 15.2486ZM78.6715 14.0909C79.3439 14.0909 79.9263 13.9418 80.4187 13.6435C80.9111 13.3452 81.2899 12.9498 81.555 12.4574C81.8249 11.9602 81.9599 11.4134 81.9599 10.8168V9.24006C81.8652 9.33002 81.7066 9.41051 81.484 9.48153C81.2662 9.55256 81.0129 9.61648 80.7241 9.6733C80.44 9.72538 80.1559 9.77036 79.8718 9.80824C79.5877 9.84612 79.332 9.87926 79.1048 9.90767C78.4892 9.98343 77.9637 10.1018 77.5281 10.2628C77.0924 10.4238 76.7586 10.6463 76.5266 10.9304C76.2946 11.2098 76.1786 11.5696 76.1786 12.0099C76.1786 12.6728 76.4154 13.1866 76.8888 13.5511C77.3623 13.911 77.9566 14.0909 78.6715 14.0909ZM90.8839 4.09091V5.19176H85.6779V4.09091H90.8839ZM87.3043 1.47727H88.5756V12.152C88.5756 12.6065 88.6538 12.964 88.81 13.2244C88.9663 13.4801 89.1699 13.6624 89.4208 13.7713C89.6718 13.8755 89.9393 13.9276 90.2234 13.9276C90.3891 13.9276 90.5311 13.9181 90.6495 13.8991C90.7679 13.8755 90.872 13.8518 90.962 13.8281L91.2319 14.9716C91.1088 15.0189 90.9573 15.0616 90.7773 15.0994C90.5974 15.142 90.3749 15.1634 90.1097 15.1634C89.6457 15.1634 89.1983 15.0616 88.7674 14.858C88.3413 14.6544 87.9909 14.3513 87.7163 13.9489C87.4416 13.5464 87.3043 13.0469 87.3043 12.4503V1.47727ZM98.0483 15.2273C97.0303 15.2273 96.1496 14.9905 95.4062 14.517C94.6629 14.0388 94.0876 13.3783 93.6804 12.5355C93.2779 11.688 93.0767 10.7126 93.0767 9.60938C93.0767 8.51089 93.2779 7.53551 93.6804 6.68324C94.0876 5.82623 94.6487 5.15625 95.3636 4.6733C96.0833 4.18561 96.9143 3.94176 97.8565 3.94176C98.4484 3.94176 99.0189 4.05066 99.5682 4.26847C100.117 4.48153 100.61 4.81061 101.045 5.25568C101.486 5.69602 101.834 6.25237 102.089 6.92472C102.345 7.59233 102.473 8.38305 102.473 9.29688V9.92188H93.9503V8.80682H101.18C101.18 8.10606 101.038 7.47633 100.754 6.91761C100.475 6.35417 100.084 5.90909 99.5824 5.58239C99.0852 5.25568 98.5099 5.09233 97.8565 5.09233C97.1652 5.09233 96.5568 5.27699 96.0312 5.64631C95.5057 6.01562 95.0938 6.50331 94.7955 7.10938C94.5019 7.71544 94.3527 8.37831 94.348 9.09801V9.76562C94.348 10.6321 94.4972 11.3897 94.7955 12.0384C95.0985 12.6823 95.527 13.1818 96.081 13.5369C96.6349 13.892 97.2907 14.0696 98.0483 14.0696C98.5644 14.0696 99.0166 13.9891 99.4048 13.8281C99.7978 13.6671 100.127 13.4517 100.392 13.1818C100.662 12.9072 100.866 12.6065 101.003 12.2798L102.203 12.6705C102.037 13.1297 101.765 13.5535 101.386 13.9418C101.012 14.33 100.544 14.6425 99.9801 14.8793C99.4214 15.1113 98.7775 15.2273 98.0483 15.2273ZM122.539 5H121.203C121.104 4.50284 120.924 4.04356 120.664 3.62216C120.408 3.19602 120.086 2.82434 119.698 2.5071C119.31 2.18987 118.869 1.94366 118.377 1.76847C117.884 1.59328 117.352 1.50568 116.779 1.50568C115.86 1.50568 115.022 1.74479 114.265 2.22301C113.512 2.70123 112.908 3.40436 112.453 4.33239C112.004 5.25568 111.779 6.38731 111.779 7.72727C111.779 9.0767 112.004 10.2131 112.453 11.1364C112.908 12.0597 113.512 12.7604 114.265 13.2386C115.022 13.7121 115.86 13.9489 116.779 13.9489C117.352 13.9489 117.884 13.8613 118.377 13.6861C118.869 13.5109 119.31 13.267 119.698 12.9545C120.086 12.6373 120.408 12.2656 120.664 11.8395C120.924 11.4134 121.104 10.9517 121.203 10.4545H122.539C122.42 11.1222 122.198 11.7448 121.871 12.3224C121.549 12.8954 121.137 13.3973 120.635 13.8281C120.138 14.259 119.565 14.5952 118.917 14.8366C118.268 15.0781 117.555 15.1989 116.779 15.1989C115.557 15.1989 114.473 14.8935 113.526 14.2827C112.579 13.6671 111.836 12.8007 111.296 11.6832C110.761 10.5658 110.493 9.24716 110.493 7.72727C110.493 6.20739 110.761 4.88873 111.296 3.77131C111.836 2.65388 112.579 1.78977 113.526 1.17898C114.473 0.563446 115.557 0.255681 116.779 0.255681C117.555 0.255681 118.268 0.37642 118.917 0.617898C119.565 0.85464 120.138 1.19081 120.635 1.62642C121.137 2.05729 121.549 2.55919 121.871 3.1321C122.198 3.70502 122.42 4.32765 122.539 5ZM129.636 15.2273C128.693 15.2273 127.86 14.9882 127.136 14.5099C126.416 14.0317 125.853 13.3712 125.445 12.5284C125.038 11.6809 124.835 10.7031 124.835 9.59517C124.835 8.47775 125.038 7.49526 125.445 6.64773C125.853 5.79545 126.416 5.13258 127.136 4.65909C127.86 4.18087 128.693 3.94176 129.636 3.94176C130.578 3.94176 131.409 4.18087 132.129 4.65909C132.848 5.13731 133.412 5.80019 133.819 6.64773C134.231 7.49526 134.437 8.47775 134.437 9.59517C134.437 10.7031 134.233 11.6809 133.826 12.5284C133.419 13.3712 132.853 14.0317 132.129 14.5099C131.409 14.9882 130.578 15.2273 129.636 15.2273ZM129.636 14.0696C130.393 14.0696 131.035 13.866 131.56 13.4588C132.086 13.0516 132.484 12.5095 132.754 11.8324C133.028 11.1553 133.165 10.4096 133.165 9.59517C133.165 8.78078 133.028 8.03267 132.754 7.35085C132.484 6.66903 132.086 6.12216 131.56 5.71023C131.035 5.2983 130.393 5.09233 129.636 5.09233C128.883 5.09233 128.241 5.2983 127.711 5.71023C127.185 6.12216 126.785 6.66903 126.511 7.35085C126.241 8.03267 126.106 8.78078 126.106 9.59517C126.106 10.4096 126.241 11.1553 126.511 11.8324C126.785 12.5095 127.185 13.0516 127.711 13.4588C128.237 13.866 128.878 14.0696 129.636 14.0696ZM138.221 15.1065C137.941 15.1065 137.7 15.0071 137.496 14.8082C137.297 14.6046 137.198 14.3632 137.198 14.0838C137.198 13.7997 137.297 13.5582 137.496 13.3594C137.7 13.1605 137.941 13.0611 138.221 13.0611C138.505 13.0611 138.746 13.1605 138.945 13.3594C139.144 13.5582 139.243 13.7997 139.243 14.0838C139.243 14.2685 139.196 14.4389 139.101 14.5952C139.011 14.7514 138.888 14.8769 138.732 14.9716C138.58 15.0616 138.41 15.1065 138.221 15.1065Z" fill="#55B685"/>
</svg>
