<svg width="63" height="61" viewBox="0 0 63 61" fill="none" xmlns="http://www.w3.org/2000/svg">
<path d="M53.5641 8.86406C47.6719 3.14531 39.825 0 31.4859 0C14.2734 0 0.267188 13.5616 0.267188 30.2277C0.267188 35.5516 1.70156 40.7529 4.42969 45.3415L0 61L16.5516 56.7926C21.1078 59.2027 26.2406 60.469 31.4719 60.469H31.4859C48.6844 60.469 63 46.9074 63 30.2413C63 22.167 59.4562 14.5828 53.5641 8.86406ZM31.4859 55.3766C26.8172 55.3766 22.2469 54.1647 18.2672 51.8772L17.325 51.3326L7.50938 53.8243L10.125 44.5518L9.50625 43.5987C6.90469 39.5955 5.54063 34.9797 5.54063 30.2277C5.54063 16.3801 17.1844 5.10603 31.5 5.10603C38.4328 5.10603 44.9437 7.72031 49.8375 12.4723C54.7313 17.2243 57.7406 23.5286 57.7266 30.2413C57.7266 44.1025 45.7875 55.3766 31.4859 55.3766ZM45.7172 36.5592C44.9438 36.1779 41.1047 34.3533 40.3875 34.1083C39.6703 33.8496 39.15 33.727 38.6297 34.4895C38.1094 35.252 36.6188 36.9404 36.1547 37.4578C35.7047 37.9616 35.2406 38.0297 34.4672 37.6484C29.8828 35.429 26.8734 33.6862 23.85 28.6618C23.0484 27.3275 24.6516 27.4228 26.1422 24.5362C26.3953 24.0324 26.2687 23.5966 26.0719 23.2154C25.875 22.8342 24.3141 19.117 23.6672 17.6056C23.0344 16.135 22.3875 16.3393 21.9094 16.3121C21.4594 16.2848 20.9391 16.2848 20.4187 16.2848C19.8984 16.2848 19.0547 16.4754 18.3375 17.2243C17.6203 17.9868 15.6094 19.8114 15.6094 23.5286C15.6094 27.2458 18.4078 30.8404 18.7875 31.3442C19.1813 31.848 24.2859 39.473 32.1187 42.7545C37.0687 44.8241 39.0094 45.0011 41.4844 44.6471C42.9891 44.4292 46.0969 42.8225 46.7437 41.0525C47.3906 39.2824 47.3906 37.771 47.1938 37.4578C47.0109 37.1174 46.4906 36.9268 45.7172 36.5592Z" fill="#55B685"/>
</svg>
