<svg width="28" height="25" viewBox="0 0 28 25" fill="none" xmlns="http://www.w3.org/2000/svg">
<path d="M17.5 21.875V13.5417C17.5 13.2654 17.3771 13.0004 17.1583 12.8051C16.9395 12.6097 16.6428 12.5 16.3333 12.5H11.6667C11.3572 12.5 11.0605 12.6097 10.8417 12.8051C10.6229 13.0004 10.5 13.2654 10.5 13.5417V21.875" stroke="#55B685" stroke-width="0.962768" stroke-linecap="round" stroke-linejoin="round"/>
<path d="M3.5 10.4168C3.49992 10.1137 3.57389 9.8143 3.71675 9.5394C3.85962 9.26449 4.06793 9.02073 4.32717 8.82511L12.4938 2.57615C12.915 2.25835 13.4486 2.08398 14 2.08398C14.5514 2.08398 15.085 2.25835 15.5062 2.57615L23.6728 8.82511C23.9321 9.02073 24.1404 9.26449 24.2832 9.5394C24.4261 9.8143 24.5001 10.1137 24.5 10.4168V19.7918C24.5 20.3443 24.2542 20.8742 23.8166 21.2649C23.379 21.6556 22.7855 21.8751 22.1667 21.8751H5.83333C5.21449 21.8751 4.621 21.6556 4.18342 21.2649C3.74583 20.8742 3.5 20.3443 3.5 19.7918V10.4168Z" stroke="#55B685" stroke-width="0.962768" stroke-linecap="round" stroke-linejoin="round"/>
</svg>
