<svg width="11" height="11" viewBox="0 0 11 11" fill="none" xmlns="http://www.w3.org/2000/svg">
<path d="M10.6863 7.77299L8.28001 6.74172C8.17721 6.69791 8.06297 6.68868 7.95447 6.71542C7.84598 6.74215 7.7491 6.80341 7.67843 6.88997L6.61279 8.19194C4.94036 7.40341 3.59444 6.05749 2.80591 4.38506L4.10788 3.31941C4.19461 3.24888 4.256 3.152 4.28275 3.04345C4.3095 2.93491 4.30015 2.8206 4.25613 2.71784L3.22486 0.311549C3.17654 0.200775 3.09109 0.110333 2.98323 0.0558157C2.87538 0.00129879 2.75188 -0.013875 2.63403 0.0129109L0.399616 0.528545C0.285998 0.554782 0.184628 0.618755 0.112051 0.710023C0.0394729 0.801292 -2.61729e-05 0.914465 1.30116e-08 1.03107C1.30116e-08 6.54191 4.46668 11 9.96892 11C10.0856 11.0001 10.1988 10.9606 10.2901 10.888C10.3814 10.8154 10.4454 10.714 10.4717 10.6004L10.9873 8.36597C11.0139 8.24755 10.9984 8.12356 10.9435 8.01533C10.8885 7.9071 10.7976 7.8214 10.6863 7.77299Z" fill="#55B685"/>
</svg>
