<svg width="46" height="10" viewBox="0 0 46 10" fill="none" xmlns="http://www.w3.org/2000/svg">
<path d="M8.14387 4.0393H6.34689C6.31406 3.80681 6.24705 3.60031 6.14585 3.41979C6.04465 3.23654 5.91473 3.08063 5.7561 2.95208C5.59746 2.82353 5.4142 2.72507 5.20633 2.65669C5.0012 2.58831 4.77828 2.55412 4.53759 2.55412C4.10271 2.55412 3.72389 2.66216 3.40114 2.87823C3.0784 3.09157 2.82813 3.40338 2.65035 3.81365C2.47256 4.22119 2.38367 4.71625 2.38367 5.29883C2.38367 5.89782 2.47256 6.40109 2.65035 6.80863C2.83087 7.21616 3.0825 7.52386 3.40525 7.73173C3.72799 7.9396 4.10134 8.04354 4.52528 8.04354C4.76324 8.04354 4.98342 8.01209 5.18582 7.94918C5.39095 7.88627 5.57284 7.79464 5.73148 7.6743C5.89012 7.55121 6.0214 7.40215 6.12534 7.2271C6.23201 7.05205 6.30586 6.85239 6.34689 6.62811L8.14387 6.63631C8.09737 7.02197 7.98113 7.39394 7.79514 7.75225C7.61189 8.10782 7.36436 8.42646 7.05255 8.70818C6.74348 8.98716 6.37424 9.20871 5.94482 9.37282C5.51814 9.53419 5.03539 9.61488 4.49657 9.61488C3.74714 9.61488 3.07703 9.4453 2.48624 9.10614C1.89819 8.76698 1.43321 8.27603 1.09132 7.63327C0.752163 6.99051 0.582584 6.21237 0.582584 5.29883C0.582584 4.38256 0.754898 3.60305 1.09953 2.96029C1.44415 2.31753 1.91186 1.82794 2.50265 1.49152C3.09344 1.15236 3.75808 0.982784 4.49657 0.982784C4.98342 0.982784 5.43472 1.05116 5.85046 1.18792C6.26893 1.32468 6.63954 1.52434 6.96229 1.78691C7.28504 2.04675 7.54761 2.3654 7.75001 2.74284C7.95515 3.12029 8.08643 3.55244 8.14387 4.0393ZM12.2322 9.62308C11.5949 9.62308 11.0438 9.48769 10.5788 9.21691C10.1166 8.9434 9.75965 8.56322 9.50802 8.07636C9.25639 7.58677 9.13057 7.01923 9.13057 6.37374C9.13057 5.72278 9.25639 5.15387 9.50802 4.66701C9.75965 4.17742 10.1166 3.79724 10.5788 3.52646C11.0438 3.25295 11.5949 3.11619 12.2322 3.11619C12.8695 3.11619 13.4193 3.25295 13.8815 3.52646C14.3465 3.79724 14.7048 4.17742 14.9564 4.66701C15.208 5.15387 15.3339 5.72278 15.3339 6.37374C15.3339 7.01923 15.208 7.58677 14.9564 8.07636C14.7048 8.56322 14.3465 8.9434 13.8815 9.21691C13.4193 9.48769 12.8695 9.62308 12.2322 9.62308ZM12.2404 8.26919C12.5303 8.26919 12.7724 8.18713 12.9666 8.02303C13.1608 7.85618 13.3071 7.62917 13.4056 7.34198C13.5068 7.05479 13.5574 6.72794 13.5574 6.36143C13.5574 5.99492 13.5068 5.66807 13.4056 5.38088C13.3071 5.09369 13.1608 4.86668 12.9666 4.69983C12.7724 4.53299 12.5303 4.44957 12.2404 4.44957C11.9478 4.44957 11.7016 4.53299 11.5019 4.69983C11.305 4.86668 11.1559 5.09369 11.0547 5.38088C10.9563 5.66807 10.907 5.99492 10.907 6.36143C10.907 6.72794 10.9563 7.05479 11.0547 7.34198C11.1559 7.62917 11.305 7.85618 11.5019 8.02303C11.7016 8.18713 11.9478 8.26919 12.2404 8.26919ZM18.2181 5.8568V9.5H16.4703V3.19824H18.136V4.31008H18.2099C18.3493 3.94357 18.5832 3.65364 18.9114 3.4403C19.2396 3.22423 19.6376 3.11619 20.1053 3.11619C20.5429 3.11619 20.9245 3.21192 21.25 3.40338C21.5754 3.59484 21.8284 3.86835 22.009 4.22392C22.1895 4.57675 22.2797 4.99796 22.2797 5.48755V9.5H20.532V5.79936C20.5347 5.41371 20.4363 5.11284 20.2366 4.89676C20.0369 4.67795 19.762 4.56855 19.4119 4.56855C19.1767 4.56855 18.9689 4.61915 18.7883 4.72035C18.6106 4.82155 18.4711 4.96925 18.3699 5.16344C18.2714 5.3549 18.2208 5.58602 18.2181 5.8568ZM27.0091 3.19824V4.51111H23.2141V3.19824H27.0091ZM24.0757 1.68845H25.8235V7.56352C25.8235 7.7249 25.8481 7.85071 25.8973 7.94097C25.9465 8.0285 26.0149 8.09004 26.1024 8.12559C26.1927 8.16115 26.2966 8.17893 26.4142 8.17893C26.4963 8.17893 26.5784 8.17209 26.6604 8.15842C26.7425 8.142 26.8054 8.1297 26.8491 8.12149L27.124 9.42205C27.0365 9.4494 26.9134 9.48085 26.7548 9.51641C26.5961 9.5547 26.4033 9.57795 26.1763 9.58616C25.7551 9.60257 25.3858 9.5465 25.0686 9.41795C24.754 9.28939 24.5092 9.08973 24.3342 8.81895C24.1591 8.54817 24.073 8.20628 24.0757 7.79327V1.68845ZM29.9446 9.61898C29.5426 9.61898 29.1843 9.54923 28.8697 9.40974C28.5552 9.26751 28.3063 9.05828 28.123 8.78203C27.9425 8.50304 27.8522 8.15568 27.8522 7.73994C27.8522 7.38984 27.9165 7.09581 28.0451 6.85786C28.1736 6.6199 28.3487 6.42844 28.5702 6.28348C28.7918 6.13852 29.0434 6.02911 29.3251 5.95526C29.6096 5.88141 29.9077 5.82945 30.2195 5.79936C30.586 5.76107 30.8814 5.72551 31.1057 5.69269C31.33 5.65713 31.4927 5.60517 31.5939 5.53679C31.6951 5.46841 31.7457 5.36721 31.7457 5.23319V5.20857C31.7457 4.94873 31.6637 4.7477 31.4995 4.60547C31.3382 4.46325 31.1084 4.39213 30.8103 4.39213C30.4957 4.39213 30.2455 4.46188 30.0595 4.60137C29.8735 4.73813 29.7504 4.91044 29.6903 5.11831L28.0738 4.98702C28.1558 4.6041 28.3172 4.27315 28.5579 3.99417C28.7986 3.71245 29.109 3.49637 29.4892 3.34594C29.8721 3.19277 30.3152 3.11619 30.8185 3.11619C31.1686 3.11619 31.5036 3.15722 31.8237 3.23927C32.1464 3.32133 32.4322 3.44851 32.6811 3.62082C32.9328 3.79314 33.1311 4.01468 33.276 4.28546C33.421 4.5535 33.4935 4.87488 33.4935 5.2496V9.5H31.836V8.62612H31.7867C31.6855 8.82305 31.5501 8.99673 31.3806 9.14717C31.211 9.29486 31.0072 9.41111 30.7693 9.4959C30.5313 9.57795 30.2564 9.61898 29.9446 9.61898ZM30.4451 8.41278C30.7023 8.41278 30.9293 8.36218 31.1262 8.26098C31.3231 8.15705 31.4777 8.01756 31.5898 7.84251C31.7019 7.66746 31.758 7.46916 31.758 7.24761V6.57887C31.7033 6.61443 31.6281 6.64725 31.5324 6.67734C31.4394 6.70469 31.3341 6.73067 31.2165 6.75529C31.0988 6.77717 30.9812 6.79768 30.8636 6.81683C30.746 6.83324 30.6393 6.84828 30.5436 6.86196C30.3385 6.89205 30.1593 6.93991 30.0062 7.00556C29.853 7.0712 29.734 7.16009 29.6492 7.27223C29.5644 7.38164 29.522 7.51839 29.522 7.6825C29.522 7.92046 29.6082 8.10235 29.7805 8.22816C29.9556 8.35124 30.1771 8.41278 30.4451 8.41278ZM38.2013 3.19824V4.51111H34.4063V3.19824H38.2013ZM35.2679 1.68845H37.0156V7.56352C37.0156 7.7249 37.0402 7.85071 37.0895 7.94097C37.1387 8.0285 37.2071 8.09004 37.2946 8.12559C37.3849 8.16115 37.4888 8.17893 37.6064 8.17893C37.6885 8.17893 37.7705 8.17209 37.8526 8.15842C37.9346 8.142 37.9975 8.1297 38.0413 8.12149L38.3162 9.42205C38.2287 9.4494 38.1056 9.48085 37.9469 9.51641C37.7883 9.5547 37.5955 9.57795 37.3685 9.58616C36.9473 9.60257 36.578 9.5465 36.2607 9.41795C35.9462 9.28939 35.7014 9.08973 35.5263 8.81895C35.3513 8.54817 35.2651 8.20628 35.2679 7.79327V1.68845ZM42.1194 9.62308C41.4821 9.62308 40.931 9.48769 40.466 9.21691C40.0038 8.9434 39.6468 8.56322 39.3952 8.07636C39.1436 7.58677 39.0178 7.01923 39.0178 6.37374C39.0178 5.72278 39.1436 5.15387 39.3952 4.66701C39.6468 4.17742 40.0038 3.79724 40.466 3.52646C40.931 3.25295 41.4821 3.11619 42.1194 3.11619C42.7567 3.11619 43.3064 3.25295 43.7687 3.52646C44.2337 3.79724 44.592 4.17742 44.8436 4.66701C45.0952 5.15387 45.221 5.72278 45.221 6.37374C45.221 7.01923 45.0952 7.58677 44.8436 8.07636C44.592 8.56322 44.2337 8.9434 43.7687 9.21691C43.3064 9.48769 42.7567 9.62308 42.1194 9.62308ZM42.1276 8.26919C42.4175 8.26919 42.6596 8.18713 42.8538 8.02303C43.048 7.85618 43.1943 7.62917 43.2928 7.34198C43.394 7.05479 43.4446 6.72794 43.4446 6.36143C43.4446 5.99492 43.394 5.66807 43.2928 5.38088C43.1943 5.09369 43.048 4.86668 42.8538 4.69983C42.6596 4.53299 42.4175 4.44957 42.1276 4.44957C41.8349 4.44957 41.5888 4.53299 41.3891 4.69983C41.1922 4.86668 41.0431 5.09369 40.9419 5.38088C40.8435 5.66807 40.7942 5.99492 40.7942 6.36143C40.7942 6.72794 40.8435 7.05479 40.9419 7.34198C41.0431 7.62917 41.1922 7.85618 41.3891 8.02303C41.5888 8.18713 41.8349 8.26919 42.1276 8.26919Z" fill="#55B685"/>
</svg>
